<svg width="166" height="50" viewBox="0 0 166 50" fill="none" xmlns="http://www.w3.org/2000/svg">
<path d="M35.9925 30.625C36.8355 32.3771 37.2605 34.3032 37.2336 36.25C37.2336 39.0625 36.7682 41.25 35.6822 42.9688C34.5962 44.6875 33.6654 46.0938 32.1139 47.1875C30.6076 48.2194 28.9243 48.9611 27.1495 49.375C25.3692 49.7918 23.5473 50.0015 21.7196 50H1.70647V36.5625C6.67096 22.6562 20.3233 18.125 20.3233 18.125C20.3233 18.125 3.56815 31.7188 3.10273 46.875C3.10273 48.125 6.0504 48.4375 6.20554 47.0312C6.51582 42.8125 7.75694 39.2188 7.75694 39.2188C11.7906 39.2188 18.4616 38.4375 21.7196 33.75C25.7532 27.5 21.7196 18.9062 28.3906 11.5625C29.942 10 10.5495 12.3438 3.25787 21.25C1.50052 23.3196 0.417328 25.8833 0.15507 28.5938C-0.18772 25.8889 0.357099 23.1453 1.70647 20.7812V3.59375H21.099C25.5981 3.59375 28.856 4.53125 31.3382 6.40625C33.8205 8.28125 34.7513 11.4062 34.7513 15.1562C34.7775 17.1264 34.2341 19.0618 33.1874 20.7264C32.1406 22.391 30.6357 23.713 28.856 24.5312C31.917 25.5758 34.4686 27.7545 35.9925 30.625ZM58.0224 16.5625H55.8504V37.1875H67.7962V35.3125H58.0224V16.5625ZM88.585 16.5625H86.413V37.1875H88.585V16.5625ZM107.202 37.1875H109.374V27.8125H118.682V25.7812H109.374V18.4375H120.078V16.5625H107.047V37.1875H107.202ZM140.712 35.3125V27.5H150.02V25.625H140.712V18.4375H151.262V16.5625H138.54V37.1875H151.417V35.3125H140.557H140.712ZM162.432 3.59375L163.363 5.15625H162.587L161.656 3.59375H162.432ZM160.415 5.15625V1.71875H162.121C162.303 1.71215 162.484 1.75161 162.646 1.83351C162.809 1.91541 162.948 2.03713 163.052 2.1875C163.092 2.34123 163.092 2.50252 163.052 2.65625C163.123 2.85845 163.123 3.07905 163.052 3.28125C162.949 3.48223 162.786 3.646 162.587 3.75H160.88V3.28125H162.121L162.432 2.65625C162.432 2.34375 162.432 2.34375 162.121 2.34375H161.191V4.84375H160.415V5.15625ZM161.656 6.09375C162.192 6.14239 162.731 6.03386 163.207 5.78125C163.587 5.54792 163.907 5.22649 164.138 4.84375C164.376 4.41581 164.484 3.92676 164.449 3.4375C164.455 3.00069 164.348 2.56971 164.138 2.1875C163.863 1.78535 163.489 1.46225 163.052 1.25C162.637 0.970812 162.155 0.80894 161.656 0.78125L160.26 1.25C159.88 1.48333 159.561 1.80476 159.329 2.1875C159.064 2.55397 158.903 2.98605 158.863 3.4375C158.874 3.94286 159.036 4.43317 159.329 4.84375L160.26 5.78125L161.811 6.09375H161.656ZM161.656 7.03125C161.191 7.03125 160.725 7.03125 160.26 6.71875C159.854 6.52633 159.486 6.26166 159.174 5.9375C158.849 5.62529 158.586 5.25422 158.398 4.84375C158.187 4.40573 158.081 3.92419 158.088 3.4375C158.088 2.96875 158.088 2.5 158.398 2.1875L159.174 1.09375C159.486 0.769587 159.854 0.504919 160.26 0.3125L161.811 0C162.277 0 162.742 0 163.207 0.3125C163.613 0.504919 163.981 0.769587 164.293 1.09375C164.618 1.40596 164.881 1.77703 165.069 2.1875C165.258 2.57794 165.363 3.00365 165.379 3.4375C165.405 3.9761 165.298 4.51276 165.069 5C164.865 5.35475 164.603 5.67182 164.293 5.9375C163.947 6.28544 163.535 6.56113 163.083 6.7488C162.63 6.93648 162.145 7.03246 161.656 7.03125Z" fill="black"/>
</svg>
