<svg width="10" height="10" viewBox="0 0 10 10" fill="none" xmlns="http://www.w3.org/2000/svg">
<path d="M7.24062 0H2.76C1.23813 0 0 1.23813 0 2.76V7.24125C0 8.7625 1.23813 10 2.76 10H7.24062C8.7625 10 10 8.7625 10 7.24125V2.76C10.0006 1.23813 8.7625 0 7.24062 0ZM8.86875 7.10813C8.86875 8.07875 8.07875 8.86938 7.1075 8.86938H2.8925C1.92125 8.86938 1.13125 8.07812 1.13125 7.10813V2.8925C1.13125 1.92062 1.92188 1.13125 2.8925 1.13125H7.1075C8.07938 1.13125 8.86875 1.92125 8.86875 2.8925V7.10813ZM5 2.67812C3.72 2.67812 2.67812 3.72062 2.67812 5C2.67812 6.28 3.72 7.32125 5 7.32125C6.28 7.32125 7.32188 6.28 7.32188 5C7.3225 3.72062 6.28062 2.67812 5 2.67812ZM5 6.36812C4.245 6.36812 3.63125 5.75437 3.63125 5C3.63125 4.24438 4.245 3.63125 5 3.63125C5.755 3.63125 6.36875 4.24438 6.36875 5C6.36875 5.75437 5.755 6.36812 5 6.36812ZM7.56562 1.78625C7.395 1.78625 7.12688 1.85812 6.995 1.9925C6.86125 2.125 6.785 2.31 6.785 2.49875C6.785 2.68687 6.86125 2.87188 6.995 3.005C7.12688 3.13813 7.31187 3.21438 7.49937 3.21438C7.68875 3.21438 7.8725 3.13813 8.00562 3.005C8.13875 2.87188 8.215 2.68687 8.215 2.49875C8.215 2.31 8.13875 2.125 8.00562 1.9925C7.87312 1.85812 7.7375 1.78625 7.56562 1.78625Z" fill="#22212C"/>
</svg>
