<svg width="10" height="8" viewBox="0 0 10 8" fill="none" xmlns="http://www.w3.org/2000/svg">
<path d="M10 0.923429C9.625 1.108 9.24938 1.17029 8.8125 1.23086C9.24938 0.984572 9.56187 0.616 9.68687 0.123429C9.3125 0.369714 8.87437 0.491429 8.375 0.616C7.99937 0.246857 7.4375 0 6.875 0C5.81187 0 4.875 0.923429 4.875 2.03143C4.875 2.216 4.875 2.33771 4.9375 2.46229C3.25 2.40057 1.6875 1.60114 0.6875 0.369714C0.5 0.677714 0.4375 0.985143 0.4375 1.41657C0.4375 2.09314 0.8125 2.70914 1.375 3.07771C1.0625 3.07771 0.75 2.95429 0.4375 2.83143C0.4375 3.81657 1.125 4.61543 2.0625 4.8C1.875 4.86229 1.6875 4.86229 1.49937 4.86229C1.375 4.86229 1.25 4.86229 1.125 4.8C1.375 5.59943 2.125 6.21543 3.0625 6.21543C2.375 6.76971 1.5 7.07714 0.5 7.07714C0.3125 7.07714 0.1875 7.07714 0 7.07714C0.9375 7.63086 2 8 3.125 8C6.875 8 8.93687 4.924 8.93687 2.27714C8.93687 2.216 8.93687 2.09257 8.93687 2.03086C9.375 1.724 9.75 1.35429 10 0.923429Z" fill="#22212C"/>
</svg>
